<svg width="17" height="14" viewBox="0 0 17 14" fill="none" xmlns="http://www.w3.org/2000/svg">
<path fill-rule="evenodd" clip-rule="evenodd" d="M8.5 2.50617L7 1.03899L2.5 1.00824C1.67157 1.00824 1 1.67981 1 2.50824V9.97535C1 10.7998 1.66533 11.4697 2.48974 11.4753L7 11.5062L8.50307 13L10 11.5062L14.5103 11.4753C15.3347 11.4697 16 10.7998 16 9.97535L16 2.49794C15.9989 1.66952 15.3264 0.998866 14.4979 1L10 1.00617L8.5 2.50617ZM9.25 10.0042L14.5 9.96917V2.49382L10.6222 2.49914L9.26167 3.85965L9.25 10.0042ZM7.75 3.85965L6.3841 2.52863L2.5 2.50206V9.96918L7.75 10.0042V3.85965Z" fill="#DDDDDD"/>
<path d="M7 1.03899L7.17481 0.86027L7.10265 0.789686L7.00171 0.788996L7 1.03899ZM8.5 2.50617L8.32519 2.6849L8.50194 2.85778L8.67678 2.68295L8.5 2.50617ZM2.5 1.00824L2.50171 0.758239H2.5V1.00824ZM2.48974 11.4753L2.48803 11.7253H2.48803L2.48974 11.4753ZM7 11.5062L7.17623 11.3289L7.10381 11.2569L7.00171 11.2562L7 11.5062ZM8.50307 13L8.32684 13.1773L8.50343 13.3528L8.67966 13.177L8.50307 13ZM10 11.5062L9.99829 11.2562L9.89589 11.2569L9.82341 11.3292L10 11.5062ZM14.5103 11.4753L14.512 11.7253H14.512L14.5103 11.4753ZM16 9.97535H16.25V9.97535L16 9.97535ZM16 2.49794H16.25V2.4976L16 2.49794ZM14.4979 1L14.4976 0.750002H14.4976L14.4979 1ZM10 1.00617L9.99966 0.756175L9.8963 0.756316L9.82322 0.829398L10 1.00617ZM14.5 9.96917L14.5017 10.2192L14.75 10.2175V9.96917H14.5ZM9.25 10.0042L9 10.0038L8.99952 10.2559L9.25167 10.2542L9.25 10.0042ZM14.5 2.49382H14.75V2.24348L14.4997 2.24382L14.5 2.49382ZM10.6222 2.49914L10.6218 2.24914L10.5185 2.24928L10.4454 2.32237L10.6222 2.49914ZM9.26167 3.85965L9.08489 3.68287L9.01186 3.7559L9.01167 3.85917L9.26167 3.85965ZM6.3841 2.52863L6.55858 2.34959L6.48648 2.27933L6.38581 2.27864L6.3841 2.52863ZM7.75 3.85965H8V3.7542L7.92448 3.6806L7.75 3.85965ZM2.5 2.50206L2.50171 2.25207L2.25 2.25035V2.50206H2.5ZM2.5 9.96918H2.25V10.2175L2.49833 10.2192L2.5 9.96918ZM7.75 10.0042L7.74833 10.2542L8 10.2559V10.0042H7.75ZM6.82519 1.21771L8.32519 2.6849L8.67481 2.32745L7.17481 0.86027L6.82519 1.21771ZM2.49829 1.25823L6.99829 1.28898L7.00171 0.788996L2.50171 0.758245L2.49829 1.25823ZM1.25 2.50824C1.25 1.81788 1.80964 1.25824 2.5 1.25824V0.758239C1.5335 0.758239 0.75 1.54174 0.75 2.50824H1.25ZM1.25 9.97535V2.50824H0.75V9.97535H1.25ZM2.49145 11.2253C1.80445 11.2206 1.25 10.6624 1.25 9.97535H0.75C0.75 10.9372 1.52622 11.7187 2.48803 11.7253L2.49145 11.2253ZM7.00171 11.2562L2.49145 11.2253L2.48803 11.7253L6.99829 11.7562L7.00171 11.2562ZM8.6793 12.8227L7.17623 11.3289L6.82377 11.6835L8.32684 13.1773L8.6793 12.8227ZM9.82341 11.3292L8.32648 12.823L8.67966 13.177L10.1766 11.6831L9.82341 11.3292ZM14.5086 11.2253L9.99829 11.2562L10.0017 11.7562L14.512 11.7253L14.5086 11.2253ZM15.75 9.97535C15.75 10.6624 15.1956 11.2206 14.5086 11.2253L14.512 11.7253C15.4738 11.7187 16.25 10.9372 16.25 9.97535H15.75ZM15.75 2.49794L15.75 9.97535L16.25 9.97535L16.25 2.49794L15.75 2.49794ZM14.4983 1.25C15.1886 1.24906 15.7491 1.80793 15.75 2.49829L16.25 2.4976C16.2487 1.5311 15.4641 0.748677 14.4976 0.750002L14.4983 1.25ZM10.0003 1.25617L14.4983 1.25L14.4976 0.750002L9.99966 0.756175L10.0003 1.25617ZM8.67678 2.68295L10.1768 1.18295L9.82322 0.829398L8.32322 2.3294L8.67678 2.68295ZM14.4983 9.71918L9.24833 9.75425L9.25167 10.2542L14.5017 10.2192L14.4983 9.71918ZM14.25 2.49382V9.96917H14.75V2.49382H14.25ZM10.6225 2.74914L14.5003 2.74382L14.4997 2.24382L10.6218 2.24914L10.6225 2.74914ZM9.43844 4.03643L10.7989 2.67592L10.4454 2.32237L9.08489 3.68287L9.43844 4.03643ZM9.5 10.0047L9.51167 3.86012L9.01167 3.85917L9 10.0038L9.5 10.0047ZM6.20963 2.70768L7.57552 4.0387L7.92448 3.6806L6.55858 2.34959L6.20963 2.70768ZM2.49829 2.75206L6.38239 2.77863L6.38581 2.27864L2.50171 2.25207L2.49829 2.75206ZM2.75 9.96918V2.50206H2.25V9.96918H2.75ZM7.75167 9.75424L2.50167 9.71918L2.49833 10.2192L7.74833 10.2542L7.75167 9.75424ZM7.5 3.85965V10.0042H8V3.85965H7.5Z" fill="#535353"/>
</svg>
