<svg width="200" height="234" viewBox="0 0 200 234" fill="none" xmlns="http://www.w3.org/2000/svg">
<rect x="6.80737" y="4.64697" width="187.584" height="223.736" transform="rotate(0.3 6.80737 4.64697)" fill="#F8F4DA"/>
<rect x="6.80737" y="4.64697" width="187.584" height="223.736" transform="rotate(0.3 6.80737 4.64697)" fill="#ECE2C1"/>
<rect x="6.80737" y="4.64697" width="187.584" height="223.736" transform="rotate(0.3 6.80737 4.64697)" fill="#F5F1E0"/>
<path d="M6.94526 118.105C6.94526 118.105 6.9627 118.127 6.97361 118.138C7.16448 118.326 7.40862 118.455 7.67516 118.506C7.9417 118.558 8.21867 118.531 8.47106 118.428C8.72344 118.326 8.9399 118.152 9.09306 117.93C9.24622 117.708 9.32922 117.446 9.33154 117.179C9.33387 116.912 9.25543 116.651 9.10613 116.429C8.95684 116.208 8.7434 116.035 8.4928 115.933C8.24219 115.831 7.96569 115.805 7.69824 115.857C7.43079 115.91 7.18441 116.039 6.99025 116.228C6.98288 116.236 6.97618 116.244 6.97021 116.254C6.89527 116.128 6.80535 116.012 6.70234 115.908C6.41788 115.628 6.04551 115.45 5.64397 115.402C5.24243 115.353 4.83458 115.438 4.48476 115.641L6.09651 116.689L3.72871 116.477C3.55359 116.88 3.534 117.33 3.67363 117.743L6.08264 117.523L4.35292 118.641C4.70142 118.879 5.12553 118.989 5.55102 118.951C5.97651 118.913 6.37627 118.729 6.68035 118.432C6.78185 118.334 6.87083 118.224 6.94526 118.105ZM7.43559 117.69C7.33405 117.59 7.26536 117.462 7.23823 117.323C7.2111 117.184 7.22674 117.039 7.28318 116.908C7.33962 116.777 7.43431 116.665 7.55527 116.585C7.67623 116.506 7.81803 116.464 7.96271 116.464C8.10739 116.464 8.24845 116.506 8.36804 116.584C8.48762 116.663 8.58036 116.775 8.63451 116.906C8.68866 117.037 8.70179 117.182 8.67223 117.321C8.64268 117.46 8.57177 117.588 8.46847 117.688C8.32995 117.822 8.14368 117.897 7.95021 117.898C7.75675 117.898 7.57178 117.823 7.43559 117.69Z" fill="#F5F1E0"/>
<path d="M193.589 115.586C193.487 115.687 193.398 115.8 193.324 115.922L193.296 115.889C193.105 115.701 192.861 115.573 192.594 115.521C192.328 115.47 192.051 115.497 191.798 115.6C191.546 115.703 191.33 115.876 191.177 116.099C191.024 116.321 190.941 116.582 190.938 116.85C190.936 117.117 191.015 117.378 191.164 117.599C191.313 117.821 191.527 117.994 191.778 118.095C192.028 118.197 192.305 118.223 192.572 118.171C192.84 118.118 193.086 117.989 193.28 117.799L193.3 117.774C193.375 117.899 193.465 118.015 193.568 118.119C193.853 118.399 194.225 118.577 194.627 118.625C195.028 118.673 195.436 118.588 195.786 118.384L194.174 117.337L196.541 117.548C196.716 117.145 196.736 116.695 196.596 116.282L194.187 116.503L195.917 115.385C195.569 115.146 195.145 115.036 194.72 115.072C194.295 115.109 193.895 115.291 193.589 115.586ZM192.834 116.338C192.936 116.438 193.004 116.565 193.032 116.704C193.059 116.844 193.043 116.988 192.987 117.119C192.93 117.251 192.836 117.363 192.715 117.442C192.594 117.521 192.452 117.564 192.307 117.564C192.163 117.564 192.022 117.522 191.902 117.444C191.782 117.365 191.69 117.253 191.636 117.122C191.581 116.991 191.568 116.847 191.598 116.708C191.627 116.568 191.698 116.44 191.801 116.34C191.94 116.206 192.126 116.13 192.319 116.13C192.513 116.13 192.698 116.204 192.834 116.338Z" fill="#F5F1E0"/>
<path d="M5.98871 140.3C5.83912 140.344 5.70561 140.416 5.60051 140.51C5.49542 140.604 5.42214 140.717 5.38744 140.839C5.35275 140.96 5.35776 141.086 5.40201 141.205C5.44627 141.324 5.52834 141.432 5.64063 141.52C5.74798 141.602 5.88054 141.662 6.0261 141.694L5.1631 220.905L2.94955 220.908L3.66073 155.632C3.42339 156.562 2.94274 157.445 2.24901 158.227L1.55453 221.97L5.15154 221.966L5.07953 228.576C4.94369 228.52 4.7921 228.49 4.63776 228.49C4.38238 228.49 4.13661 228.57 3.95449 228.711C3.77238 228.852 3.66885 229.044 3.66667 229.243C3.66714 229.305 3.67763 229.367 3.69788 229.427C3.37979 229.26 3.01429 229.156 2.63221 229.124C2.25013 229.091 1.86269 229.131 1.50257 229.239C1.14246 229.348 0.820243 229.523 0.563113 229.748C0.305983 229.974 0.121486 230.244 0.0251897 230.535L2.51981 230.13L0.0871375 231.706C0.30633 232.13 0.716739 232.475 1.24142 232.677L3.30707 230.758L2.73097 232.844C3.12287 232.789 3.49218 232.659 3.8057 232.466C4.11923 232.273 4.36715 232.022 4.52718 231.737C4.68721 231.452 4.75434 231.14 4.72254 230.831C4.69074 230.522 4.561 230.225 4.34499 229.966C4.42485 229.984 4.5076 229.993 4.59094 229.994C4.7183 229.995 4.84491 229.976 4.96342 229.939C5.08193 229.901 5.18999 229.846 5.28134 229.776C5.37269 229.706 5.44551 229.622 5.4956 229.531C5.54568 229.439 5.57202 229.34 5.57309 229.241C5.57282 229.115 5.53331 228.992 5.45802 228.882L13.911 228.872L13.8804 231.681L46.9066 231.64C47.9515 231.09 49.133 230.72 50.3715 230.556L15.2618 230.599L15.2806 228.87L68.2453 228.805C68.2746 228.946 68.357 229.077 68.482 229.181C68.6598 229.32 68.9017 229.398 69.1547 229.397C69.4077 229.397 69.6513 229.319 69.8322 229.179C69.9383 229.093 70.0164 228.988 70.0597 228.874C71.408 229.169 72.8014 229.326 74.2049 229.34C76.911 229.337 84.0436 228.613 84.0436 228.613C84.0436 228.613 76.9266 227.908 74.2205 227.912C72.8121 227.928 71.4106 228.088 70.0511 228.386C70.0046 228.288 69.9331 228.199 69.8409 228.124C69.7531 228.055 69.6484 228.001 69.533 227.963C69.4175 227.926 69.2936 227.907 69.1682 227.907C69.0428 227.907 68.9184 227.926 68.8022 227.964C68.6859 228.002 68.5801 228.057 68.4907 228.126C68.3921 228.205 68.3172 228.299 68.2718 228.403L15.285 228.468C15.304 226.459 14.3016 224.535 12.4978 223.117C10.6941 221.698 8.23631 220.903 5.66392 220.904L6.52682 141.702C6.69709 141.676 6.85452 141.612 6.97983 141.518C7.15961 141.378 7.26176 141.189 7.26391 140.991C7.26606 140.794 7.16803 140.605 6.99129 140.466C6.88189 140.383 6.7475 140.323 6.6003 140.291C6.99252 139.232 7.20719 138.138 7.23892 137.038C7.26194 134.925 6.40671 129.362 6.40671 129.362C6.40671 129.362 5.43023 134.927 5.40721 137.041C5.41933 138.144 5.61479 139.239 5.98871 140.3ZM13.9154 228.47L5.58138 228.48L5.65226 221.974C7.86141 221.973 9.97203 222.656 11.5211 223.874C13.0702 225.092 13.9313 226.745 13.9154 228.47Z" fill="#F5F1E0"/>
<path d="M192.941 139.967C192.794 139.999 192.658 140.059 192.547 140.143C192.367 140.283 192.265 140.472 192.263 140.669C192.261 140.866 192.359 141.055 192.536 141.195C192.66 141.288 192.815 141.351 192.985 141.378L192.151 220.58C189.578 220.586 187.103 221.389 185.269 222.813C183.435 224.236 182.391 226.164 182.367 228.173L129.378 228.264C129.333 228.161 129.261 228.067 129.165 227.988C129.077 227.919 128.972 227.864 128.857 227.827C128.741 227.79 128.617 227.77 128.492 227.771C128.366 227.771 128.242 227.79 128.126 227.828C128.01 227.866 127.904 227.921 127.814 227.99C127.721 228.065 127.647 228.155 127.599 228.252C126.243 227.957 124.842 227.801 123.431 227.788C120.725 227.793 113.59 228.518 113.59 228.518C113.59 228.518 120.71 229.221 123.416 229.217C124.829 229.197 126.234 229.033 127.596 228.73C127.636 228.844 127.712 228.949 127.817 229.034C127.995 229.173 128.237 229.251 128.49 229.25C128.743 229.25 128.987 229.171 129.168 229.032C129.295 228.927 129.38 228.796 129.412 228.655L182.363 228.564L182.345 230.293L147.224 230.353C148.459 230.514 149.633 230.881 150.666 231.428L183.703 231.371L183.733 228.562L192.177 228.547C192.096 228.661 192.054 228.79 192.055 228.921C192.056 229.051 192.101 229.178 192.185 229.29C192.269 229.402 192.39 229.495 192.534 229.559C192.679 229.623 192.843 229.657 193.01 229.656C193.093 229.655 193.176 229.646 193.256 229.628C193.034 229.887 192.897 230.185 192.859 230.495C192.82 230.804 192.88 231.115 193.034 231.401C193.188 231.686 193.431 231.936 193.741 232.128C194.05 232.321 194.417 232.45 194.808 232.503L194.277 230.419L196.302 232.332C196.83 232.128 197.247 231.782 197.474 231.358L195.097 229.797L197.583 230.195C197.493 229.904 197.314 229.634 197.062 229.409C196.81 229.184 196.491 229.011 196.133 228.903C195.776 228.796 195.389 228.757 195.006 228.791C194.623 228.824 194.256 228.93 193.934 229.097C193.956 229.037 193.967 228.975 193.969 228.913C193.971 228.714 193.872 228.523 193.693 228.382C193.514 228.241 193.27 228.163 193.014 228.163C192.86 228.164 192.708 228.194 192.571 228.25L192.64 221.649L196.237 221.643L196.908 157.899C196.231 157.119 195.77 156.237 195.552 155.308L194.865 220.576L192.651 220.579L193.486 141.368C193.632 141.336 193.766 141.276 193.875 141.193C193.99 141.105 194.075 140.997 194.122 140.877C194.169 140.758 194.176 140.632 194.144 140.51C194.111 140.388 194.04 140.275 193.936 140.182C193.832 140.088 193.699 140.017 193.55 139.974C193.945 138.912 194.16 137.816 194.19 136.713C194.213 134.599 193.358 129.037 193.358 129.037C193.358 129.037 192.384 134.603 192.361 136.716C192.373 137.816 192.568 138.909 192.941 139.967ZM192.071 228.156L183.737 228.17C183.758 226.445 184.654 224.79 186.23 223.567C187.805 222.345 189.93 221.655 192.139 221.65L192.071 228.156Z" fill="#F5F1E0"/>
<path d="M7.05967 93.9163C7.20758 93.8842 7.34327 93.8239 7.45449 93.7408C7.63427 93.6009 7.73642 93.4116 7.73857 93.2143C7.74072 93.0171 7.64269 92.828 7.46596 92.6885C7.3427 92.5945 7.18667 92.5309 7.01695 92.5054L7.88041 13.3031C10.4528 13.2983 12.928 12.4966 14.7627 11.0741C16.5974 9.65156 17.6418 7.72439 17.6666 5.71549L70.6562 5.65078C70.7 5.75422 70.7727 5.84858 70.869 5.92711C71.0468 6.06623 71.2887 6.14415 71.5417 6.14384C71.7947 6.14353 72.0383 6.06502 72.2192 5.92546C72.3137 5.84997 72.3873 5.76008 72.4352 5.66156C73.7903 5.95937 75.1913 6.11677 76.6025 6.12969C79.3086 6.12639 86.4412 5.40461 86.4412 5.40461C86.4412 5.40461 79.3242 4.6981 76.6181 4.7014C75.2142 4.71928 73.8174 4.8793 72.4626 5.17751C72.4224 5.06313 72.3466 4.95859 72.2418 4.87313C72.0639 4.73401 71.822 4.65608 71.569 4.65639C71.316 4.6567 71.0724 4.73522 70.8915 4.87478C70.7643 4.9789 70.6791 5.10985 70.6467 5.25105L17.671 5.31574L17.6898 3.5871L52.8105 3.54421C51.5756 3.3824 50.4022 3.01544 49.3692 2.46802L16.332 2.50836L16.3014 5.31741L7.85668 5.32772C7.93438 5.21742 7.97656 5.09423 7.97957 4.96888C7.98102 4.87005 7.95743 4.77218 7.91016 4.68088C7.8629 4.58957 7.79289 4.50666 7.70417 4.43688C7.61544 4.36711 7.50975 4.31185 7.39317 4.27431C7.2766 4.23676 7.15143 4.21766 7.02488 4.2181C6.94153 4.21874 6.85857 4.2283 6.77831 4.24649C6.9981 3.98727 7.13278 3.69018 7.17032 3.38183C7.20785 3.07348 7.14707 2.76344 6.99341 2.47941C6.83975 2.19538 6.59799 1.94622 6.28973 1.75417C5.98148 1.56213 5.61633 1.43318 5.22691 1.37887L5.75757 3.46338L3.7337 1.54924C3.2046 1.75248 2.78665 2.09871 2.55822 2.52302L4.93733 4.08452L2.42933 3.68568C2.51928 3.97712 2.69789 4.24668 2.95011 4.47163C3.20233 4.69656 3.52075 4.87026 3.87851 4.97808C4.23626 5.08591 4.62285 5.12469 5.00565 5.09115C5.38845 5.05762 5.75623 4.95274 6.07795 4.78538C6.05639 4.8453 6.04457 4.90701 6.04274 4.96908C6.04057 5.16851 6.13993 5.35965 6.31897 5.50044C6.49801 5.64125 6.74206 5.72017 6.99744 5.71986C7.15179 5.71924 7.30402 5.68939 7.44109 5.63289L7.36912 12.2342L3.77211 12.2386L3.07718 75.9824C3.75312 76.7624 4.21445 77.6446 4.43238 78.5737L5.14392 13.3065L7.35746 13.3038L6.49391 92.5147C6.34766 92.5469 6.21378 92.6072 6.10463 92.6902C5.99087 92.7788 5.90741 92.8882 5.86205 93.0082C5.81668 93.1283 5.81089 93.2551 5.8452 93.3767C5.87952 93.4984 5.95282 93.6109 6.05828 93.7039C6.16374 93.7969 6.29791 93.8672 6.44828 93.9084C6.05459 94.9707 5.83895 96.067 5.80677 97.1698C5.78373 99.2831 6.63893 104.846 6.63893 104.846C6.63893 104.846 7.61544 99.2809 7.63848 97.1676C7.62713 96.0674 7.43256 94.9745 7.05967 93.9163ZM7.963 5.72734L16.297 5.71716C16.2753 7.44238 15.3782 9.09733 13.8025 10.319C12.2268 11.5406 10.1013 12.2291 7.89207 12.2335L7.963 5.72734Z" fill="#F5F1E0"/>
<path d="M195.249 2.88777C195.245 3.2535 195.379 3.61095 195.634 3.91564C195.554 3.89768 195.472 3.88837 195.388 3.88797C195.221 3.88795 195.057 3.92193 194.911 3.98657C194.765 4.05121 194.643 4.14428 194.556 4.25657C194.47 4.36886 194.422 4.49651 194.418 4.62689C194.414 4.75729 194.453 4.88592 194.533 5.00009L186.088 5.01466L186.118 2.2056L153.091 2.26258C152.047 2.81306 150.865 3.1835 149.627 3.34895L184.736 3.28837L184.718 5.01702L131.754 5.10841C131.724 4.9673 131.642 4.8366 131.517 4.73285C131.339 4.59382 131.097 4.51601 130.844 4.51645C130.591 4.51689 130.347 4.59553 130.167 4.73518C130.062 4.82463 129.988 4.93341 129.953 5.05101C128.605 4.75696 127.211 4.60101 125.808 4.5871C123.102 4.59177 115.966 5.31932 115.966 5.31932C115.966 5.31932 123.086 6.0201 125.793 6.01543C127.197 5.99403 128.594 5.82961 129.948 5.52638C129.994 5.62477 130.065 5.71445 130.158 5.78966C130.336 5.92868 130.578 6.00648 130.831 6.00605C131.084 6.00561 131.328 5.92697 131.509 5.78733C131.606 5.70797 131.68 5.61355 131.727 5.51036L184.714 5.41893C184.696 7.42783 185.699 9.35199 187.503 10.7692C189.307 12.1863 191.766 12.9807 194.338 12.978L193.504 92.1805C193.333 92.2065 193.176 92.2706 193.051 92.3649C192.871 92.505 192.769 92.6943 192.767 92.8916C192.765 93.0888 192.863 93.2778 193.04 93.4172C193.149 93.5 193.284 93.5599 193.431 93.5916C193.039 94.6513 192.825 95.7448 192.793 96.8447C192.771 98.9579 193.628 104.52 193.628 104.52C193.628 104.52 194.6 98.9548 194.622 96.8415C194.613 95.7383 194.418 94.6425 194.042 93.5819C194.193 93.539 194.327 93.4672 194.433 93.3732C194.539 93.2792 194.612 93.166 194.647 93.0442C194.682 92.9225 194.677 92.7961 194.633 92.6769C194.588 92.5577 194.506 92.4496 194.393 92.3626C194.285 92.28 194.153 92.22 194.007 92.1883L194.841 12.9771L197.055 12.9733L196.368 78.2493C196.605 77.3195 197.086 76.436 197.778 75.654L198.45 11.91L194.853 11.9162L194.922 5.31488C195.058 5.37098 195.21 5.40038 195.364 5.40056C195.619 5.40012 195.865 5.32046 196.047 5.17913C196.229 5.0378 196.333 4.84637 196.335 4.64693C196.334 4.58486 196.324 4.52318 196.304 4.46333C196.622 4.62975 196.987 4.73354 197.369 4.76595C197.751 4.79837 198.139 4.75844 198.499 4.64956C198.859 4.54067 199.181 4.36601 199.438 4.14032C199.695 3.91462 199.88 3.64453 199.976 3.35281L197.459 3.75908L199.889 2.18184C199.67 1.75833 199.261 1.41327 198.737 1.21148L196.672 3.13165L197.247 1.0455C196.694 1.12498 196.191 1.35255 195.827 1.68891C195.462 2.02525 195.258 2.44928 195.249 2.88777ZM194.418 5.40219L194.349 11.9084C192.14 11.9105 190.029 11.2282 188.48 10.0112C186.93 8.79415 186.068 7.14179 186.084 5.41657L194.418 5.40219Z" fill="#F5F1E0"/>
</svg>
