<svg width="14" height="10" viewBox="0 0 14 10" fill="none" xmlns="http://www.w3.org/2000/svg">
<path d="M6.89746 0.0625C3.77246 0.0625 1.10371 2.00625 0.0224609 4.75C1.10371 7.49375 3.77246 9.4375 6.89746 9.4375C10.0225 9.4375 12.6912 7.49375 13.7725 4.75C12.6912 2.00625 10.0225 0.0625 6.89746 0.0625ZM6.89746 7.875C5.17246 7.875 3.77246 6.475 3.77246 4.75C3.77246 3.025 5.17246 1.625 6.89746 1.625C8.62246 1.625 10.0225 3.025 10.0225 4.75C10.0225 6.475 8.62246 7.875 6.89746 7.875ZM6.89746 2.875C5.85996 2.875 5.02246 3.7125 5.02246 4.75C5.02246 5.7875 5.85996 6.625 6.89746 6.625C7.93496 6.625 8.77246 5.7875 8.77246 4.75C8.77246 3.7125 7.93496 2.875 6.89746 2.875Z" fill="#4E423D"/>
</svg>
