<svg width="121" height="24" viewBox="0 0 121 24" fill="none" xmlns="http://www.w3.org/2000/svg">
<g clip-path="url(#clip0_1010_123)">
<path d="M9.20277e-05 0.801758H7.5833V3.92035H3.50852V8.0981H7.35529V11.2167H3.50852V19.1383H-0.0219727L9.20277e-05 0.801758Z" fill="white"/>
<path d="M17.8364 14.5486C17.8364 16.9611 17.8364 18.3291 17.8732 19.1382H14.4824C14.4137 18.7198 14.3744 18.297 14.3647 17.8731C14.1072 18.3647 13.708 18.7677 13.2189 19.0299C12.7298 19.2922 12.1732 19.4016 11.6212 19.3441C10.2017 19.3441 8.74536 18.6601 8.74536 15.6077V4.67053H12.2759V14.8207C12.2759 15.8284 12.5627 16.3432 13.2467 16.3432C13.9308 16.3432 14.3059 15.8284 14.3059 14.4529V4.67053H17.8364V14.5486Z" fill="white"/>
<path d="M19.8737 9.00271C19.8737 6.42104 19.8737 5.20009 19.8369 4.67052H23.2203C23.2872 5.07436 23.3266 5.48227 23.338 5.89146C23.6091 5.42006 24.0056 5.03304 24.4834 4.77337C24.9612 4.51369 25.5017 4.39151 26.0447 4.42042C27.9865 4.42042 28.9868 5.66346 28.9868 8.17894V19.1087H25.4563V8.93652C25.4563 7.95092 25.1547 7.46548 24.4927 7.46548C23.6984 7.46548 23.3895 7.91414 23.3895 9.34105V19.1014H19.859L19.8737 9.00271Z" fill="white"/>
<path d="M30.9653 0.801758H35.2975C39.0781 0.801758 40.38 2.52287 40.38 6.31815V13.21C40.38 16.3727 39.7107 19.1383 35.5403 19.1383H30.9653V0.801758ZM34.4958 16.2992H35.1798C36.5626 16.2992 36.7906 15.3945 36.7906 13.9602V5.75181C36.7906 4.39846 36.4891 3.66292 35.1578 3.66292H34.4958V16.2992Z" fill="white"/>
<path d="M42.2629 4.67055H45.8302V19.1382H42.2997L42.2629 4.67055ZM42.2629 0H45.8302V3.19215H42.2997L42.2629 0Z" fill="white"/>
<path d="M56.1274 14.0116V14.5191C56.1274 17.2773 55.3919 19.3662 51.7879 19.3662C48.3898 19.3662 47.5513 17.3582 47.5513 14.2175V9.23071C47.5513 6.72994 48.4927 4.44983 51.9644 4.44983C55.7008 4.44983 56.1789 6.95059 56.1789 8.92914V9.66466H52.7882V8.78939C52.7882 7.8185 52.6484 7.31835 51.957 7.31835C51.2656 7.31835 51.1038 7.85528 51.1038 8.78939V15.0854C51.1038 15.9239 51.2509 16.5565 51.957 16.5565C52.6631 16.5565 52.7882 15.9534 52.7882 14.9898V14.0116H56.1274Z" fill="white"/>
<path d="M57.1353 4.67059H58.5695V1.38281H62.0706V4.67059H63.7182V7.78182H62.0706V15.3062C62.0706 15.9682 62.1662 16.3653 62.9753 16.3653C63.1877 16.3698 63.3999 16.35 63.6078 16.3065V19.0353C62.9557 19.2496 62.2713 19.3491 61.5852 19.3295C59.4448 19.3295 58.5327 18.594 58.5327 16.0417V7.78182H57.1353V4.67059Z" fill="white"/>
<path d="M65.0935 4.67055H68.6314V19.1382H65.1009L65.0935 4.67055ZM65.0935 0H68.6314V3.19215H65.1009L65.0935 0Z" fill="white"/>
<path d="M79.5096 9.20128V14.6368C79.5096 17.8289 77.7959 19.3662 74.8979 19.3662C72 19.3662 70.3818 17.7995 70.3818 14.6368V9.06889C70.3818 5.8326 72.3383 4.44983 74.9494 4.44983C77.7076 4.44983 79.5096 5.92822 79.5096 9.20128ZM73.9123 8.89237V14.8207C73.9123 15.7548 74.1771 16.402 74.9641 16.402C75.7511 16.402 75.9791 15.7916 75.9791 14.7839V8.85561C75.9791 7.98034 75.7732 7.38457 74.942 7.38457C74.2212 7.36986 73.9123 7.91413 73.9123 8.89237Z" fill="white"/>
<path d="M81.2454 9.00271C81.2454 6.42104 81.2454 5.20009 81.2454 4.67052H84.6288C84.6957 5.07436 84.735 5.48227 84.7464 5.89146C85.0176 5.42006 85.4141 5.03304 85.8919 4.77337C86.3697 4.51369 86.9101 4.39151 87.4531 4.42042C89.3949 4.42042 90.3952 5.66346 90.3952 8.17894V19.1087H86.8647V8.93652C86.8647 7.95092 86.5632 7.46548 85.9012 7.46548C85.1068 7.46548 84.7979 7.91414 84.7979 9.34105V19.1014H81.2674L81.2454 9.00271Z" fill="white"/>
<path d="M100.84 15.8284C100.84 17.1229 100.84 18.5057 100.928 19.1382H97.6403C97.5459 18.7878 97.4746 18.4315 97.4269 18.0717C97.1746 18.4914 96.8106 18.8327 96.3754 19.0574C95.9403 19.2822 95.4513 19.3814 94.9629 19.3442C92.7564 19.3442 91.8738 17.3141 91.8738 15.1002V14.8207C91.8738 11.1431 94.3819 10.2311 97.0739 10.2311H97.3166V8.54673C97.3166 7.56849 97.1769 7.12718 96.5296 7.12718C95.8824 7.12718 95.7205 7.60526 95.7205 8.45111V8.78944H92.3151V8.56143C92.3151 6.05331 93.4551 4.43518 96.6694 4.43518C99.5232 4.43518 100.84 5.78854 100.84 8.31872V15.8284ZM97.3166 12.7171H96.9783C95.9486 12.7171 95.2645 13.1731 95.2645 14.681V14.8648C95.2645 15.8651 95.5955 16.38 96.2722 16.38C96.9489 16.38 97.3166 15.8799 97.3166 14.4088V12.7171Z" fill="white"/>
<path d="M102.892 9.58384C102.892 7.10514 102.892 5.90625 102.855 4.67058H106.224C106.26 4.96478 106.327 6.14161 106.327 6.82564C106.477 6.14042 106.86 5.52869 107.412 5.09526C107.963 4.66183 108.648 4.43368 109.35 4.44991V8.69387C107.651 8.69387 106.408 9.01013 106.408 11.4594V19.1382H102.877L102.892 9.58384Z" fill="white"/>
<path d="M114.101 4.67054C114.653 8.46582 115.256 12.9819 115.344 14.8354H115.477C115.675 12.5112 116.065 9.74562 116.764 4.67054H120.375C120.169 5.47226 117.749 17.1744 117.249 19.3809C116.425 23.1027 115.352 23.9632 112.895 23.9632C112.346 23.9632 111.798 23.9239 111.255 23.8455L111.291 20.8372C111.394 20.8372 111.784 20.8887 112.101 20.8887C112.28 20.925 112.466 20.9205 112.644 20.8757C112.821 20.8309 112.987 20.7469 113.128 20.6298C113.269 20.5127 113.382 20.3656 113.459 20.1991C113.536 20.0326 113.574 19.8511 113.572 19.6678L110.313 4.64111L114.101 4.67054Z" fill="white"/>
</g>
<defs>
<clipPath id="clip0_1010_123">
<rect width="120.375" height="24" fill="white"/>
</clipPath>
</defs>
</svg>
