<svg width="13" height="11" viewBox="0 0 13 11" fill="none" xmlns="http://www.w3.org/2000/svg">
<path d="M6.30608 10.7639L6.56598 10.3368C6.58023 10.3454 6.5966 10.35 6.61328 10.35C6.62975 10.35 6.64591 10.3455 6.66003 10.3371C9.18633 8.78375 10.5437 7.26026 11.2716 5.9974C11.9981 4.73716 12.1133 3.70956 12.1133 3.1199C12.1133 1.76041 10.9985 0.649902 9.61328 0.649902C8.95906 0.649902 8.32188 1.01153 7.81113 1.43486C7.56285 1.64064 7.36068 1.84757 7.22077 2.00308C7.1511 2.08051 7.09764 2.14434 7.06238 2.18775C7.04477 2.20944 7.03176 2.22597 7.0236 2.23647L7.01504 2.24758L7.01399 2.24896L7.01383 2.24917C7.01381 2.24919 7.0138 2.24921 7.01378 2.24923C6.9194 2.37552 6.77096 2.4499 6.61328 2.4499C6.45568 2.4499 6.30731 2.3756 6.21292 2.24942C6.2129 2.24939 6.21288 2.24936 6.21286 2.24934C6.21276 2.24921 6.21267 2.24909 6.21258 2.24896L6.21152 2.24758L6.20297 2.23647C6.19481 2.22597 6.18179 2.20944 6.16418 2.18775C6.12893 2.14434 6.07546 2.08051 6.00579 2.00308C5.86588 1.84757 5.66371 1.64064 5.41543 1.43486C4.90468 1.01153 4.26751 0.649902 3.61328 0.649902C2.22803 0.649902 1.11328 1.76041 1.11328 3.1199C1.11328 3.70956 1.2285 4.73716 1.95494 5.9974C2.68302 7.2605 4.04074 8.78431 6.56794 10.338L6.30608 10.7639ZM6.30608 10.7639C6.39865 10.8202 6.50492 10.85 6.61328 10.85C6.72164 10.85 6.82791 10.8202 6.92048 10.7639H6.30608Z" stroke="#EEEEEE" stroke-linecap="round" stroke-linejoin="round"/>
</svg>
