<svg width="40" height="40" viewBox="0 0 40 40" fill="none" xmlns="http://www.w3.org/2000/svg">
<rect width="40" height="40" rx="20" fill="#4F423E"/>
<path d="M30 20.0003C30.0028 21.0222 29.823 22.0345 29.4711 22.9785C29.1192 23.9226 28.6022 24.7797 27.95 25.5001C27.7613 25.7071 27.5068 25.8231 27.2416 25.8231C26.9765 25.8231 26.722 25.7071 26.5333 25.5001C26.4401 25.3969 26.3661 25.2743 26.3156 25.1392C26.2652 25.0042 26.2392 24.8594 26.2392 24.7131C26.2392 24.5669 26.2652 24.4221 26.3156 24.2871C26.3661 24.152 26.4401 24.0294 26.5333 23.9261C26.9979 23.411 27.3666 22.7991 27.6181 22.1254C27.8696 21.4518 27.999 20.7296 27.999 20.0003C27.999 19.271 27.8696 18.5489 27.6181 17.8752C27.3666 17.2016 26.9979 16.5897 26.5333 16.0745C26.3454 15.8658 26.2399 15.5827 26.2399 15.2875C26.2399 14.9923 26.3454 14.7092 26.5333 14.5005C26.7212 14.2918 26.976 14.1745 27.2416 14.1745C27.5073 14.1745 27.7621 14.2918 27.95 14.5005C28.6022 15.2209 29.1192 16.078 29.4711 17.0221C29.823 17.9662 30.0028 18.9785 30 20.0003ZM22.6666 11.1117V28.8889C22.6672 29.097 22.6151 29.301 22.5164 29.4778C22.4177 29.6546 22.2763 29.797 22.1083 29.8889C21.9703 29.9618 21.8195 29.9997 21.6666 30C21.4443 29.9967 21.2285 29.9157 21.05 29.7685L15.325 24.815H11.6667C11.2253 24.8126 10.8027 24.6167 10.4906 24.2699C10.1785 23.9232 10.0022 23.4536 10 22.9632V17.0375C10.0022 16.5471 10.1785 16.0775 10.4906 15.7307C10.8027 15.384 11.2253 15.1881 11.6667 15.1857H15.325L21.05 10.2321C21.1992 10.1054 21.377 10.0271 21.5638 10.0059C21.7507 9.98463 21.9391 10.0213 22.1083 10.1118C22.2763 10.2037 22.4177 10.3461 22.5164 10.5229C22.6151 10.6997 22.6672 10.9037 22.6666 11.1117ZM12 22.5928H14.6667V17.4078H12V22.5928ZM20.6666 13.3802L16.6667 16.843V23.1576L20.6666 26.6205V13.3802ZM25.5916 17.1208C25.4038 16.9121 25.149 16.7948 24.8833 16.7948C24.6176 16.7948 24.3628 16.9121 24.175 17.1208C23.9871 17.3295 23.8816 17.6126 23.8816 17.9078C23.8816 18.203 23.9871 18.4861 24.175 18.6948C24.3307 18.8654 24.4543 19.0686 24.5387 19.2927C24.6231 19.5169 24.6666 19.7574 24.6666 20.0003C24.6666 20.2433 24.6231 20.4838 24.5387 20.7079C24.4543 20.932 24.3307 21.1353 24.175 21.3058C24.0818 21.4091 24.0078 21.5317 23.9573 21.6668C23.9068 21.8018 23.8809 21.9466 23.8809 22.0929C23.8809 22.2391 23.9068 22.3839 23.9573 22.5189C24.0078 22.654 24.0818 22.7766 24.175 22.8799C24.2675 22.9838 24.3779 23.066 24.4996 23.1217C24.6212 23.1774 24.7517 23.2053 24.8833 23.2039C25.015 23.2064 25.1458 23.1789 25.2676 23.1232C25.3894 23.0675 25.4997 22.9847 25.5916 22.8799C25.9328 22.5022 26.2035 22.0535 26.3882 21.5593C26.5729 21.0652 26.668 20.5354 26.668 20.0003C26.668 19.4653 26.5729 18.9355 26.3882 18.4413C26.2035 17.9472 25.9328 17.4984 25.5916 17.1208Z" fill="white" fill-opacity="0.75"/>
</svg>
