<svg width="22" height="20" viewBox="0 0 22 20" fill="none" xmlns="http://www.w3.org/2000/svg">
<path d="M10.0456 18.2312L10.0495 18.2336C10.3359 18.4078 10.6647 18.5 11 18.5C11.3352 18.5 11.664 18.4078 11.9504 18.2336L11.9504 18.2336L11.9544 18.2312C15.69 15.9346 17.8161 13.6075 19.0039 11.5468C20.1951 9.48038 20.4111 7.73657 20.4111 6.66351C20.4111 3.80209 18.0706 1.5 15.2056 1.5C13.6962 1.5 12.4192 2.30758 11.5938 2.99175C11.3722 3.1754 11.1732 3.35842 11 3.52878C10.8268 3.35842 10.6278 3.1754 10.4062 2.99175C9.58077 2.30758 8.30374 1.5 6.79443 1.5C3.92941 1.5 1.58887 3.80209 1.58887 6.66351C1.58887 7.73657 1.80491 9.48038 2.99605 11.5468C4.18389 13.6075 6.30997 15.9346 10.0456 18.2312Z" stroke="#D8BC6D" stroke-width="2" stroke-linecap="round" stroke-linejoin="round"/>
</svg>
