<svg width="15" height="10" viewBox="0 0 15 10" fill="none" xmlns="http://www.w3.org/2000/svg">
<path d="M7.5 0.1931C4.375 0.1931 1.70625 2.13685 0.625 4.8806C1.70625 7.62435 4.375 9.5681 7.5 9.5681C10.625 9.5681 13.2937 7.62435 14.375 4.8806C13.2937 2.13685 10.625 0.1931 7.5 0.1931ZM7.5 8.0056C5.775 8.0056 4.375 6.6056 4.375 4.8806C4.375 3.1556 5.775 1.7556 7.5 1.7556C9.225 1.7556 10.625 3.1556 10.625 4.8806C10.625 6.6056 9.225 8.0056 7.5 8.0056ZM7.5 3.0056C6.4625 3.0056 5.625 3.8431 5.625 4.8806C5.625 5.9181 6.4625 6.7556 7.5 6.7556C8.5375 6.7556 9.375 5.9181 9.375 4.8806C9.375 3.8431 8.5375 3.0056 7.5 3.0056Z" fill="#DDDDDD"/>
</svg>
