<?xml version="1.0" encoding="UTF-8"?><svg id="_圖層_1" xmlns="http://www.w3.org/2000/svg" viewBox="0 0 1086.27 243.36"><g><path d="M316.88,46.85h32.74V196.63h-32.74c-8.64-26.88-17.28-53.74-25.7-79.91,.61,7.07,1.67,14.87,1.87,22.68,.49,18.76,.58,37.52,.82,56.28,0,.32-.18,.63-.29,.94h-32.02c-.11-1.19-.34-2.38-.34-3.57-.02-47.54-.02-95.09,0-142.64,0-1.19,.22-2.38,.34-3.57h32.02c8.96,28.4,17.93,56.8,26.78,84.83-3.52-27.91-3.78-56.36-3.49-84.83"/><path d="M405.71,160.84c4.8-.43,8.36-2.29,10.58-5.62,1.92-2.87,3.66-6,4.57-9.24,3.69-13.29,3.6-26.81,1.03-40.2-.99-5.18-3.38-10.26-5.85-15.06-1.84-3.55-5.35-5.8-10.32-5.5v75.61Zm-34.27-113.98h36.39c1.05,.22,2.1,.49,3.17,.65,9.46,1.38,17.79,4.86,24.64,10.99,9.02,8.07,14.45,18.04,17.95,28.92,5.16,16.04,5.57,32.45,4.19,48.95-.93,11.18-3.35,22.13-8.4,32.49-6.15,12.61-15.26,22.33-30.56,26.07-2.67,.66-5.38,1.15-8.08,1.71h-39.31V46.85Z"/><path d="M205.53,46.85h33.48c.04,4.72,.1,9.46,.1,14.18-.03,31.99,.12,63.99-.2,95.99-.14,12.88-5.61,23.89-16.8,32.3-5.29,3.97-11.53,5.85-18.02,7.3h-12.37c-.45-.17-.88-.41-1.35-.48-15.73-2.42-26.16-10.69-31.86-23.98-3.61-8.38-4.64-17.19-4.63-26.14,.02-33.07,0-66.12,0-99.18h34.2c-.02,32.85-.06,65.71,.01,98.56,0,3.16,.44,6.37,1.22,9.44,1.13,4.45,3.67,6.21,7.71,6.05,3.86-.14,6.41-2.29,7.06-6.71,.66-4.44,1.05-8.95,1.06-13.43,.1-29.89,.05-59.78,.07-89.67,0-1.41,.22-2.82,.34-4.23"/><path d="M525.53,145.71c-2.05-19.67-4.05-39.02-6-57.96-2.48,19.02-5.01,38.43-7.56,57.96h13.57Zm41.68,50.92h-34.93c-.81-6.48-1.61-12.97-2.45-19.68-7.22,0-14.09-.05-20.95,.07-.69,.01-1.85,1.05-1.94,1.7-.88,5.95-1.57,11.94-2.31,17.91h-35.66c.25-.96,.52-1.91,.72-2.88,2.8-13.89,5.59-27.78,8.4-41.67,4.95-24.54,9.9-49.1,14.88-73.64,2.14-10.54,4.38-21.06,6.56-31.59h41.48c3.91,22.09,7.8,44.19,11.74,66.28,3.77,21.12,7.62,42.22,11.34,63.34,1.18,6.7,2.08,13.43,3.12,20.16"/><polygon points="132.04 46.85 132.04 81.12 81.26 81.12 81.26 101.51 114.34 101.51 114.34 134.42 81.09 134.42 81.09 196.63 46.91 196.63 46.91 46.85 132.04 46.85"/><path d="M631.97,46.85c11.16,0,22.31-.01,33.48,.03,.72,0,1.45,.41,2.17,.63-.44,.87-1,1.71-1.31,2.61-9.04,26.69-18.08,53.39-27.02,80.1-.73,2.17-1.09,4.51-1.1,6.78-.09,18.57-.04,37.14-.07,55.71,0,1.31-.22,2.6-.34,3.91h-33.47c-.04-20.1-.05-40.21-.14-60.31-.01-1.61-.21-3.31-.76-4.84-3.92-11.05-7.96-22.06-11.94-33.09-6.17-17.18-12.32-34.36-18.47-51.54h35.66c3.84,14.52,7.67,29.05,11.63,44.02,3.96-14.98,7.82-29.49,11.66-44.02"/></g><g><path d="M765.23,141.26v19.99h7.61v7.78h-30.79c2.71,4.66,5.93,8.08,9.64,10.26,4.3,2.77,11.94,5.66,22.91,8.67l-4.51,7.96c-9.67-3.01-17.13-6.22-22.38-9.64-5.84-3.78-10.41-9.52-13.71-17.25h-1.15c-1.77,4.66-4.25,8.7-7.43,12.12-6.02,6.43-15.87,11.35-29.55,14.77l-4.78-7.52c13.92-3.48,23.35-7.87,28.31-13.18,1.83-1.89,3.3-3.95,4.42-6.19h-31.67v-7.78h7.96v-19.99h27.16v-7.96h8.4v7.96h29.55Zm-73.78-20.17h20.88v-8.32h8.49v8.32h23.35v-8.32h8.49v8.32h21.23v7.43h-21.23v6.55h-8.49v-6.55h-23.35v6.55h-8.49v-6.55h-20.88v-7.43Zm16.81,40.16h18.22c.53-2.54,.8-5.13,.8-7.79v-4.78h-19.02v12.56Zm27.42-12.56v4.78c-.06,2.71-.3,5.31-.71,7.79h22.12v-12.56h-21.41Z"/><path d="M796.94,112.78c1.3,3.01,2.57,6.37,3.8,10.08h13.36v7.43h-35.03v-7.43h13.18c-1.18-3.18-2.51-6.1-3.98-8.76l8.67-1.33Zm-7.08,76.26v6.55h-8.14v-32.73h27.96v31.67h-8.14v-5.49h-11.68Zm-7.61-52.55h27.25v7.08h-27.25v-7.08Zm0,13.09h27.25v7.08h-27.25v-7.08Zm19.29,32.02v-11.32h-11.68v11.32h11.68Zm13.62-65.11h45.29v7.43h-20.7l-2.21,9.2h17.78v19.11h7.25v7.43h-50.6v-7.43h13.27l2.74-11.68h-12.12v-7.43h13.89l2.21-9.2h-16.81v-7.43Zm43.17,50.25v29.19h-7.79v-3.01h-26.54v3.01h-7.79v-29.19h42.11Zm-34.32,18.75h26.54v-11.32h-26.54v11.32Zm9.02-33.26h14.15v-11.68h-11.41l-2.74,11.68Z"/><path d="M870.93,120.91h12.92v-7.43h8.14v7.43h11.94v7.08h-11.94v7.61h6.9c4.25-4.89,8.37-10.62,12.38-17.16l6.72,4.16c-3.13,4.84-6.13,9.17-9.02,13h4.78v5.4c1.24-2.36,2.21-4.66,2.92-6.9,1.95-5.31,3.54-12.41,4.78-21.32l8.23,1.33c-.77,4.72-1.56,8.93-2.39,12.65h22.91v7.43h-5.04c-.41,15.22-3.04,27.51-7.87,36.89-.35,.83-.74,1.59-1.15,2.3,3.89,5.66,8.82,10.53,14.77,14.6l-5.13,7.61c-6.08-4.6-10.94-9.53-14.6-14.77-4.25,5.31-9.73,10.35-16.45,15.13l-4.87-7.61c7.02-4.42,12.62-9.41,16.81-14.95-3.42-6.43-6.37-13.71-8.85-21.85-1.3,2.3-2.71,4.6-4.25,6.9l-5.84-7.17c1.89-2.77,3.57-5.51,5.04-8.23h-10c-1.18,1.3-2.36,2.51-3.54,3.63-1.24,1.24-2.54,2.45-3.89,3.63h11.68v7.34c-3.24,3.3-6.84,6.4-10.79,9.29v1.42c5.72-.59,10.97-1.3,15.75-2.12v7.17c-3.89,.83-9.14,1.62-15.75,2.39v12.03c-.12,2.24-.62,3.98-1.5,5.22-1.42,1.71-3.07,2.57-4.95,2.57h-11.5l-2.04-8.49c2.89,.18,5.96,.27,9.2,.27,1.77,0,2.65-.8,2.65-2.39v-8.32c-5.6,.53-11.94,1.06-19.02,1.59l-1.33-8.49c7.25-.12,14.04-.38,20.35-.8v-5.22c2.77-1.53,5.75-3.66,8.93-6.37h-10.26c-4.48,3.36-9.38,6.67-14.69,9.91l-4.33-7.17c1.89-.83,3.68-1.74,5.4-2.74h-2.57v-7.08h13.09c2.83-2.18,5.57-4.6,8.23-7.25h-24.5v-7.43h16.46v-7.61h-12.92v-7.08Zm52.11,19.82c2.24,9.73,5.04,17.93,8.4,24.59,3.42-7.67,5.4-18.05,5.93-31.14h-12.12c-.35,1.06-.68,2.03-.97,2.92-.35,1.24-.77,2.45-1.24,3.63Z"/><path d="M998.71,111.71c1.42,2.18,2.71,4.54,3.89,7.08h36.98v7.79h-21.59c8.26,5.37,14.77,10.06,19.55,14.07l-7.87,5.4c-2.01-2-4.31-4.1-6.9-6.28-13.57,1.77-34.18,3.16-61.84,4.16l-2.39-8.14c5.13,0,10-.03,14.6-.09,3.12-2.95,5.54-5.99,7.25-9.11h-24.33v-7.79h36.89c-1.24-1.95-2.57-3.8-3.98-5.57l9.73-1.5Zm9.55,83.16l-1.95-8.49,10.97,.35c2-.12,3.01-1.39,3.01-3.8v-2.21h-45.29v14.51h-8.85v-49.01h62.99v39.19c0,3.24-.8,5.66-2.39,7.25-1.36,1.47-3.33,2.21-5.93,2.21h-12.56Zm-33.26-34.32h45.29v-6.9h-45.29v6.9Zm0,13.09h45.29v-6.02h-45.29v6.02Zm39.99-40.08c-1.65-1.24-3.36-2.51-5.13-3.8l5.13-3.18h-24.42c-1.83,3.13-4.16,6.1-6.99,8.93,12.39-.35,22.85-1,31.41-1.95Z"/></g></svg>